<svg width="123" height="123" viewBox="0 0 123 123" fill="none" xmlns="http://www.w3.org/2000/svg">
<g clip-path="url(#clip0_85_1131)">
<g clip-path="url(#clip1_85_1131)">
<g clip-path="url(#clip2_85_1131)">
<path d="M33.7565 31.7444L58.8319 32.8331L84.5263 60.6276L60.1475 89.5828L35.1495 91.8324C35.1495 91.8324 44.9321 81.5889 44.4677 61.5562C44.0033 41.5236 33.7565 31.7444 33.7565 31.7444Z" fill="#A0041E"/>
<path d="M4.36282 62.4409C4.36282 62.4409 17.3104 48.7556 27.3952 48.5218C37.4799 48.288 50.8391 61.7208 50.8391 61.7208C50.8391 61.7208 38.099 75.0623 28.0843 75.2944C18.0697 75.5266 4.36282 62.4409 4.36282 62.4409Z" fill="#FFAC33"/>
<path d="M24.5911 68.6954C28.3639 72.2972 34.3422 72.1586 37.944 68.3858C41.5458 64.613 41.4072 58.6348 37.6344 55.0329C33.8617 51.4311 27.8834 51.5697 24.2816 55.3425C20.6798 59.1153 20.8183 65.0936 24.5911 68.6954Z" fill="#FFCC4D"/>
<path d="M121.245 59.7747C121.245 59.7747 104.167 43.4705 67.3692 40.9836C48.9703 39.7401 34.2966 55.1103 34.4513 61.7868C34.6061 68.4632 49.9763 83.137 68.2979 81.0422C104.941 76.8527 121.245 59.7747 121.245 59.7747Z" fill="#55ACEE"/>
<path d="M97.7225 53.6399C94.9507 50.9938 90.9938 50.3858 87.6566 51.734C88.884 52.1648 90.0453 52.8393 91.0461 53.7947C94.8186 57.3963 94.9572 63.3751 91.3556 67.1476C90.4002 68.1484 89.2714 68.8759 88.0686 69.3631C91.4631 70.5569 95.3859 69.7646 98.0321 66.9928C101.634 63.2203 101.495 57.2415 97.7225 53.6399Z" fill="black"/>
<path d="M27.7762 61.9432C27.7762 61.9432 34.2979 55.112 37.6361 55.0346C40.9743 54.9572 77.7722 57.4475 77.8495 60.7823C77.9268 64.1172 41.2822 68.3084 37.944 68.3858C34.6057 68.4632 27.7762 61.9432 27.7762 61.9432Z" fill="#A0041E"/>
</g>
</g>
</g>
<defs>
<clipPath id="clip0_85_1131">
<rect width="85" height="88" fill="white" transform="translate(60.8013 -0.00360107) rotate(43.672)"/>
</clipPath>
<clipPath id="clip1_85_1131">
<rect width="85" height="88" fill="white" transform="translate(60.8013 -0.00360107) rotate(43.672)"/>
</clipPath>
<clipPath id="clip2_85_1131">
<rect width="85" height="85" fill="white" transform="translate(59.7656 1.08136) rotate(43.672)"/>
</clipPath>
</defs>
</svg>
